Coordinates
version=1
nRows=24
nColumns=24
inDegrees=yes

Units are S.I. units (second, meters, Newtons, ...)
Angles are in degrees.

endheader
time	pelvis_tilt	pelvis_list	pelvis_rotation	pelvis_tx	pelvis_ty	pelvis_tz	hip_flexion_r	hip_adduction_r	hip_rotation_r	knee_angle_r	ankle_angle_r	subtalar_angle_r	mtp_angle_r	hip_flexion_l	hip_adduction_l	hip_rotation_l	knee_angle_l	ankle_angle_l	subtalar_angle_l	mtp_angle_l	lumbar_extension	lumbar_bending	lumbar_rotation
      3.51000000	     -8.85750648	     -8.79109092	      7.26600664	     -2.78947454	     -0.02147159	      0.43253238	     23.02528626	      8.58403451	     -9.35215584	    -15.51101609	     -6.91977615	     -4.13182476	      4.85403315	     16.19726982	    -10.23447294	      4.28158644	    -58.49773027	    -27.56704953	     -4.73126093	     24.24051034	      7.86588219	      8.87950605	     -4.04490678
      3.51500000	     -8.68964864	     -8.75991843	      7.19182208	     -2.78394967	     -0.02079197	      0.43337331	     22.38831992	      8.75373495	     -9.18341257	    -15.38424466	     -6.59244426	     -4.15472363	      4.94536228	     16.89271201	    -10.11856438	      4.37735569	    -59.48821486	    -27.36812771	     -6.60414631	     23.32300769	      7.64285779	      8.85012870	     -3.87711584
      3.52000000	     -8.50188340	     -8.73592825	      7.06130775	     -2.77844012	     -0.02006243	      0.43428027	     21.71820426	      8.95506438	     -8.99319045	    -15.23638870	     -6.30602397	     -4.16161163	      4.95104230	     17.54238796	    -10.03728701	      4.42018496	    -60.38487572	    -27.04622571	     -8.21987201	     22.50956363	      7.39417224	      8.83986654	     -3.60478700
      3.52500000	     -8.33118467	     -8.61681252	      6.93235656	     -2.77293291	     -0.01926046	      0.43516489	     21.02494994	      9.05480174	     -8.69796813	    -15.05202685	     -5.98400729	     -4.14122685	      4.95340998	     18.16976593	     -9.83662950	      4.45905343	    -61.16275267	    -26.69262344	     -9.65133794	     21.67173632	      7.16353306	      8.72222804	     -3.36759632
      3.53000000	     -8.17966457	     -8.47297758	      6.78301690	     -2.76744154	     -0.01843559	      0.43606981	     20.34049473	      9.12728790	     -8.41542095	    -14.85142679	     -5.67766767	     -4.10165093	      4.95173518	     18.79224286	     -9.61307921	      4.48289534	    -61.83353095	    -26.23719680	    -10.82391668	     20.99888094	      6.95304157	      8.57455722	     -3.09796881
      3.53500000	     -8.04700649	     -8.28405473	      6.63330989	     -2.76201526	     -0.01758172	      0.43695652	     19.66602277	      9.14422947	     -8.10569073	    -14.64029165	     -5.37872407	     -4.05655151	      4.94447594	     19.41797614	     -9.33034926	      4.51319160	    -62.40403172	    -25.71864310	    -11.74941042	     20.45462207	      6.75593418	      8.38059811	     -2.80279976
      3.54000000	     -7.95285970	     -8.05850722	      6.46598139	     -2.75655571	     -0.01671648	      0.43785305	     19.01502204	      9.11846611	     -7.79425981	    -14.40877762	     -5.09713395	     -4.01621010	      4.93977485	     20.04352260	     -9.01279718	      4.51575779	    -62.84480987	    -25.09240783	    -12.44297790	     20.14836151	      6.60781676	      8.14360806	     -2.53822589
      3.54500000	     -7.87445983	     -7.81306794	      6.29934960	     -2.75118279	     -0.01583253	      0.43872940	     18.38148471	      9.06081645	     -7.47620048	    -14.17246224	     -4.84017788	     -3.96551975	      4.92888224	     20.67854149	     -8.66642309	      4.52335724	    -63.19403398	    -24.41639518	    -12.92736906	     19.95135682	      6.46759396	      7.88609680	     -2.21077345
      3.55000000	     -7.83421018	     -7.52748945	      6.13719337	     -2.74580699	     -0.01494023	      0.43958163	     17.77923990	      8.94800541	     -7.15785423	    -13.92599864	     -4.59841269	     -3.92311648	      4.92333780	     21.32171357	     -8.27488765	      4.51057085	    -63.41805328	    -23.67323833	    -13.24527618	     19.92979738	      6.37547592	      7.58222916	     -1.94287188
      3.55500000	     -7.81931965	     -7.18743908	      5.97491086	     -2.74047529	     -0.01404711	      0.44045996	     17.20968640	      8.77134617	     -6.83282848	    -13.69674300	     -4.34074457	     -3.90586839	      4.92618915	     21.96602551	     -7.83309003	      4.45788913	    -63.53044930	    -22.89766101	    -13.42437384	     20.00767003	      6.30299071	      7.21246676	     -1.70019263
      3.56000000	     -7.83511723	     -6.85312854	      5.84411138	     -2.73512822	     -0.01313785	      0.44123731	     16.64330825	      8.57671127	     -6.46619159	    -13.40949714	     -4.12453177	     -3.83505067	      4.93369836	     22.62863160	     -7.37277466	      4.43742877	    -63.53647564	    -22.14974268	    -13.53618990	     20.13771493	      6.28192451	      6.84797722	     -1.50158169
      3.56500000	     -7.84375946	     -6.41570748	      5.51433390	     -2.72985139	     -0.01219497	      0.44228472	     16.12385710	      8.32627903	     -6.04984323	    -13.24185428	     -3.89306611	     -3.76651574	      4.92429016	     23.18721582	     -6.90958041	      4.18224616	    -63.41630987	    -21.07451567	    -13.18773354	     20.39190271	      6.20318140	      6.40522950	     -1.01171427
      3.57000000	     -7.87218995	     -6.01860941	      5.29998570	     -2.72457156	     -0.01131316	      0.44318252	     15.59710965	      8.07894182	     -5.63477128	    -13.00522322	     -3.66005397	     -3.73567830	      4.88748925	     23.79678560	     -6.44457629	      4.02971142	    -63.23282111	    -20.07751708	    -12.84631320	     20.59209814	      6.17907869	      5.98604717	     -0.72291543
      3.57500000	     -7.92798398	     -5.58005728	      5.08526316	     -2.71934074	     -0.01042731	      0.44405256	     15.12065441	      7.77243019	     -5.28938728	    -12.79662991	     -3.46566371	     -3.69987471	      4.88149381	     24.40402141	     -5.93244780	      3.85028403	    -62.93001925	    -19.17467993	    -12.55495481	     20.81306756	      6.17703698	      5.51992347	     -0.41868056
      3.58000000	     -7.97760220	     -5.17668528	      4.84189406	     -2.71408398	     -0.00961086	      0.44494515	     14.62313463	      7.50728727	     -4.86240225	    -12.55656072	     -3.24157011	     -3.64504623	      4.87474040	     24.99347221	     -5.48766252	      3.63399035	    -62.56528049	    -18.24284534	    -12.15493344	     21.04030598	      6.18193450	      5.10030304	     -0.11253354
      3.58500000	     -8.03807832	     -4.75712766	      4.60765469	     -2.70886269	     -0.00881377	      0.44578884	     14.15617478	      7.21042340	     -4.52013175	    -12.33569523	     -3.06010556	     -3.60961257	      4.86886963	     25.57263303	     -5.02075056	      3.40955607	    -62.10289256	    -17.42040680	    -11.83814487	     21.22775649	      6.19825183	      4.66422802	      0.19142441
      3.59000000	     -8.08522846	     -4.38540194	      4.34183952	     -2.70359379	     -0.00808844	      0.44664495	     13.65412060	      6.96845626	     -4.11471496	    -12.06919157	     -2.86224611	     -3.54795930	      4.86220969	     26.12881143	     -4.63660222	      3.14716060	    -61.58889672	    -16.63018582	    -11.48276170	     21.39042519	      6.21518809	      4.28871733	      0.50859048
      3.59500000	     -8.12548436	     -4.03301545	      4.07671247	     -2.69835293	     -0.00742302	      0.44745810	     13.15636335	      6.73797203	     -3.74378743	    -11.80999004	     -2.68187517	     -3.50034016	      4.85030212	     26.66673099	     -4.27663514	      2.88078008	    -61.00759399	    -15.91605565	    -11.20399840	     21.50020868	      6.22695885	      3.93892067	      0.81660507
      3.60000000	     -8.15005913	     -3.71919783	      3.79801406	     -2.69310044	     -0.00682660	      0.44825080	     12.63704596	      6.54514202	     -3.36450738	    -11.53255678	     -2.50457078	     -3.44570683	      4.83456057	     27.17914062	     -3.97390547	      2.59982717	    -60.37310428	    -15.26438327	    -10.97400001	     21.56338798	      6.22923832	      3.63634211	      1.12645620
      3.60500000	     -8.15887102	     -3.43736813	      3.50497715	     -2.68783081	     -0.00629398	      0.44900672	     12.09476946	      6.38137497	     -2.99081440	    -11.23529148	     -2.33291945	     -3.38766874	      4.81199571	     27.66351034	     -3.72019416	      2.30274519	    -59.68574242	    -14.67782283	    -10.79833961	     21.57601414	      6.22315451	      3.38096514	      1.44090856
      3.61000000	     -8.16316119	     -3.18359038	      3.21558062	     -2.68254102	     -0.00582723	      0.44974309	     11.54115388	      6.23958210	     -2.64600039	    -10.91800906	     -2.16934087	     -3.32033178	      4.78668286	     28.13357461	     -3.50532580	      2.00537814	    -58.94336616	    -14.16902955	    -10.68495228	     21.54756545	      6.22036193	      3.15161781	      1.74793007
      3.61500000	     -8.16246136	     -2.95480320	      2.92759115	     -2.67723883	     -0.00544461	      0.45041920	     10.97851882	      6.11431813	     -2.31407815	    -10.59071396	     -1.99387054	     -3.25338737	      4.75970101	     28.58706045	     -3.31939430	      1.71354172	    -58.15183109	    -13.69871127	    -10.63284851	     21.48221299	      6.21733960	      2.95902626	      2.03236046
      3.62000000	     -8.11629243	     -2.77358379	      2.60290419	     -2.67191096	     -0.00508508	      0.45113847	     10.34493720	      6.04386554	     -1.93234365	    -10.21797309	     -1.83645671	     -3.15573910	      4.70882494	     28.98289802	     -3.22426781	      1.37991503	    -57.32613315	    -13.26583648	    -10.58256271	     21.32637929	      6.17080839	      2.82292215	      2.36458411
      3.62500000	     -8.10058782	     -2.59281666	      2.31093549	     -2.66656344	     -0.00482418	      0.45177517	      9.74578855	      5.95564490	     -1.61648266	     -9.84734239	     -1.66107911	     -3.07392993	      4.66938860	     29.39439875	     -3.10943323	      1.08804623	    -56.43914943	    -12.85989971	    -10.57618921	     21.15808598	      6.16522221	      2.68670209	      2.63156059
